<?xml version="1.0" encoding="utf-8"?>
<!-- Generator: Adobe Illustrator 22.0.0, SVG Export Plug-In . SVG Version: 6.00 Build 0)  -->
<svg version="1.1" id="Layer_1" xmlns="http://www.w3.org/2000/svg" xmlns:xlink="http://www.w3.org/1999/xlink" x="0px" y="0px"
	 viewBox="0 0 413.4 81.2" style="enable-background:new 0 0 413.4 81.2;" xml:space="preserve">
<style type="text/css">
	.st0{fill:#222634;}
	.st1{fill:#34CC98;}
</style>
<g>
	<g id="XMLID_12_">
		<path id="XMLID_22_" class="st0" d="M12.2,14c0-0.7,0.2-1.2,0.7-1.6c0.5-0.4,1.1-0.7,2-1l7.7-2.7c0.1,0,0.2,0,0.3,0
			c0.1,0,0.2,0,0.3,0c0.8,0,1.4,0.3,1.7,0.7c0.3,0.5,0.4,1.1,0.4,1.9l0,9.3h4.6c0.7,0,1.3,0.2,1.8,0.7c0.4,0.4,0.7,1.1,0.7,1.9v6.5
			c0,0.9-0.2,1.6-0.7,2.1c-0.4,0.4-1,0.7-1.8,0.7h-4.6l0,28.6c0,0.9-0.3,1.5-0.7,1.9c-0.5,0.4-1.2,0.7-2.1,0.7h-7.7
			c-1.8,0-2.6-0.9-2.6-2.6l0-28.6H8.6c-1.8,0-2.6-0.9-2.6-2.7v-6.5c0-1.7,0.9-2.6,2.6-2.6h3.5L12.2,14L12.2,14z"/>
		<path id="XMLID_21_" class="st0" d="M38.7,6.2c0-0.9,0.2-1.6,0.6-2c0.4-0.4,1-0.6,1.9-0.6H49c0.8,0,1.4,0.2,1.9,0.6s0.7,1.1,0.7,2
			v6.6c0,0.3-0.1,0.5-0.2,0.9c-0.1,0.3-0.3,0.6-0.5,0.9c-0.2,0.3-0.5,0.5-0.8,0.7c-0.3,0.2-0.7,0.3-1.1,0.3h-7.9
			c-1.7,0-2.5-0.9-2.5-2.8L38.7,6.2L38.7,6.2z M38.7,23.3c0-0.7,0.2-1.4,0.6-1.8c0.4-0.5,1-0.8,1.9-0.8H49c0.3,0,0.5,0.1,0.9,0.2
			s0.6,0.3,0.9,0.5c0.3,0.2,0.5,0.5,0.7,0.8c0.2,0.3,0.3,0.7,0.3,1.1v37.7c0,0.9-0.3,1.5-0.7,1.9c-0.5,0.4-1.2,0.7-2,0.7h-7.8
			c-1.7,0-2.5-0.9-2.5-2.6L38.7,23.3L38.7,23.3L38.7,23.3z"/>
		<path id="XMLID_20_" class="st0" d="M87.3,50.5c0.3-0.2,0.6-0.4,0.9-0.4c0.3-0.1,0.5-0.1,0.7-0.1c0.4,0,0.7,0.1,1.1,0.3
			c0.3,0.1,0.7,0.5,1,1l3.8,5.7c0.1,0.2,0.2,0.4,0.3,0.6s0.1,0.4,0.1,0.5c0,0.5-0.1,0.9-0.5,1.3c-0.3,0.3-0.7,0.6-1.1,0.9
			c-1.8,1.3-3.9,2.3-6.1,3.1c-2.2,0.8-4.5,1.2-7,1.2c-2,0-4-0.3-5.9-0.8c-1.9-0.5-3.7-1.3-5.2-2.2c-1.6-0.9-3.1-2.1-4.5-3.5
			c-1.4-1.4-2.5-2.8-3.5-4.5c-0.9-1.6-1.7-3.4-2.2-5.3c-0.5-1.9-0.8-3.9-0.8-6c0-2.1,0.3-4.1,0.8-6c0.5-1.9,1.3-3.7,2.2-5.3
			c0.9-1.7,2.1-3.1,3.5-4.5c1.4-1.4,2.8-2.5,4.5-3.4c1.6-0.9,3.4-1.7,5.2-2.2c1.9-0.5,3.8-0.8,5.9-0.8c2.4,0,4.7,0.3,6.8,1
			s4.1,1.6,5.9,2.9l-0.1-0.1c0.5,0.3,0.9,0.7,1.2,1c0.3,0.4,0.4,0.9,0.4,1.5c0,0.4-0.1,0.8-0.4,1.2l-3,5.1c-0.6,1.1-1.4,1.7-2.3,1.7
			c-0.2,0-0.4,0-0.7-0.1c-0.3-0.1-0.6-0.3-1-0.5c-1-0.7-2.1-1.2-3.2-1.6c-1.1-0.4-2.4-0.6-3.7-0.6c-1.4,0-2.7,0.3-3.9,0.9
			c-1.2,0.6-2.2,1.4-3.1,2.4c-0.8,1-1.5,2.2-2,3.5c-0.5,1.3-0.7,2.7-0.7,4.1c0,1.5,0.3,2.9,0.7,4.2c0.5,1.3,1.1,2.4,2,3.3
			s1.8,1.7,3.1,2.3c1.2,0.5,2.5,0.8,3.9,0.8c1.3,0,2.5-0.2,3.6-0.7C85.2,51.8,86.3,51.2,87.3,50.5z"/>
		<path id="XMLID_19_" class="st0" d="M101.6,10.5c0-0.4,0-0.7,0-1.1c0-0.3,0.1-0.6,0.3-0.8c0.2-0.2,0.4-0.4,0.8-0.5
			c0.4-0.1,0.9-0.2,1.5-0.2h8.1c0.4,0,0.8,0.1,1.1,0.2c0.3,0.1,0.5,0.3,0.7,0.5c0.2,0.2,0.3,0.5,0.3,0.7c0.1,0.3,0.1,0.5,0.1,0.7v25
			l12.2-13.6c0.6-0.7,1.3-1,2.1-1h10.4c1.2,0,1.8,0.5,1.8,1.5c0,0.3,0,0.4-0.1,0.6c-0.1,0.1-0.3,0.4-0.5,0.7l-13.9,14.7L144,60.6
			H144c0.3,0.3,0.5,0.6,0.6,0.9c0.1,0.3,0.2,0.6,0.2,0.8c0,0.5-0.1,0.9-0.4,1.1c-0.3,0.2-0.7,0.3-1.3,0.3h-11.5
			c-0.4,0-0.7-0.1-1.1-0.4c-0.3-0.3-0.7-0.7-1.1-1.3l-11.1-15.7l-3.7,3.8V61c0,0.2,0,0.4-0.1,0.7c-0.1,0.3-0.2,0.6-0.3,0.9
			c-0.2,0.3-0.4,0.5-0.7,0.7c-0.3,0.2-0.7,0.3-1.2,0.3h-8.5c-0.4,0-0.8-0.1-1.1-0.3c-0.3-0.2-0.5-0.5-0.7-0.7
			c-0.2-0.3-0.3-0.5-0.4-0.8c-0.1-0.3-0.1-0.4-0.1-0.4L101.6,10.5L101.6,10.5z"/>
		<path id="XMLID_18_" class="st0" d="M185.5,58.6c-2,1.8-4.2,3.2-6.7,4.3c-2.5,1-5.1,1.5-7.9,1.5c-3.1,0-6-0.5-8.8-1.7
			c-2.8-1.1-5.2-2.7-7.3-4.7s-3.7-4.3-5-7.1c-1.2-2.7-1.8-5.6-1.8-8.8c0-2,0.3-3.9,0.7-5.8c0.5-1.8,1.2-3.6,2.1-5.2
			c0.9-1.6,2-3.1,3.2-4.5c1.3-1.4,2.7-2.6,4.3-3.5c1.6-1,3.3-1.7,5.1-2.3c1.9-0.5,3.8-0.8,5.9-0.8c1.8,0,3.7,0.3,5.5,0.7
			c1.8,0.5,3.4,1.2,5,2.1c1.5,0.9,3,2,4.3,3.2c1.3,1.3,2.4,2.7,3.3,4.1c0.9,1.5,1.6,3.1,2.2,4.8c0.5,1.7,0.8,3.5,0.8,5.2
			c0,1.2,0,2.2,0,2.9c0,0.7-0.2,1.4-0.5,1.8c-0.3,0.4-0.8,0.7-1.6,0.9c-0.7,0.2-1.8,0.3-3.2,0.3h-24.4c0.2,1.5,0.7,2.7,1.4,3.6
			c0.7,1,1.5,1.8,2.4,2.3c0.9,0.6,1.8,1,2.9,1.2c1,0.2,2,0.4,2.9,0.4c0.8,0,1.6-0.1,2.5-0.3c0.9-0.2,1.7-0.4,2.5-0.7
			c0.8-0.3,1.5-0.6,2.2-1s1.2-0.8,1.6-1.2c0.4-0.3,0.7-0.5,0.9-0.7c0.3-0.1,0.5-0.2,0.8-0.2c0.3,0,0.6,0.1,0.9,0.3
			c0.3,0.2,0.7,0.5,1,0.9l3.6,4.1c0.3,0.3,0.4,0.5,0.5,0.8c0.1,0.3,0.1,0.5,0.1,0.7c0,0.4-0.1,0.8-0.4,1.2
			C186.1,58,185.8,58.3,185.5,58.6z M169.2,30.3c-0.9,0-1.8,0.2-2.6,0.5c-0.8,0.3-1.6,0.8-2.3,1.4c-0.7,0.6-1.4,1.2-1.9,2
			c-0.6,0.7-1.1,1.5-1.4,2.3h17.3c-0.5-0.9-1-1.7-1.5-2.4c-0.5-0.7-1.2-1.4-1.9-2c-0.7-0.5-1.5-1-2.4-1.3
			C171.5,30.5,170.4,30.3,169.2,30.3z"/>
		<path id="XMLID_17_" class="st0" d="M197.4,14c0-0.7,0.2-1.2,0.7-1.6c0.5-0.4,1.1-0.7,2-1l7.7-2.7c0.1,0,0.2,0,0.3,0s0.2,0,0.3,0
			c0.8,0,1.4,0.3,1.7,0.7c0.3,0.5,0.4,1.1,0.4,1.9l0,9.3h4.6c0.7,0,1.3,0.2,1.8,0.7s0.7,1.1,0.7,1.9v6.5c0,0.9-0.2,1.6-0.7,2.1
			c-0.4,0.4-1.1,0.7-1.8,0.7h-4.6l0,28.6c0,0.9-0.3,1.5-0.7,1.9c-0.5,0.4-1.2,0.7-2.1,0.7H200c-1.8,0-2.6-0.9-2.6-2.6l0-28.6h-3.5
			c-1.8,0-2.6-0.9-2.6-2.7v-6.5c0-1.7,0.9-2.6,2.6-2.6h3.5L197.4,14z"/>
		<path id="XMLID_16_" class="st1" d="M224.8,21.1c0.3-0.3,0.6-0.4,0.9-0.5c0.3-0.1,0.6-0.1,0.9-0.1h5.1c0.4,0,0.8,0.1,1.1,0.2
			c0.3,0.1,0.5,0.3,0.7,0.5c0.2,0.3,0.3,0.5,0.5,0.8c0.1,0.3,0.3,0.7,0.4,1l1.4,4.1c0.6-0.8,1.3-1.6,1.9-2.5
			c0.7-0.8,1.4-1.6,2.3-2.3s1.9-1.3,3.1-1.7c1.2-0.4,2.7-0.7,4.5-0.7c3.1,0,6,0.6,8.6,1.7c2.6,1.1,4.9,2.7,6.7,4.7
			c1.9,2,3.3,4.3,4.4,7c1.1,2.7,1.6,5.6,1.6,8.7c0,3.1-0.5,6-1.6,8.7c-1.1,2.7-2.6,5.1-4.4,7.1c-1.9,2-4.1,3.6-6.7,4.7
			c-2.6,1.2-5.5,1.7-8.6,1.7c-1.5,0-2.7-0.2-3.8-0.5c-1.1-0.4-2-0.8-2.8-1.4c-0.8-0.5-1.6-1.2-2.2-1.8s-1.2-1.4-1.8-2v15.8
			c0,0.7-0.2,1.2-0.6,1.7c-0.4,0.5-1,0.7-1.9,0.7h-7.8c-0.3,0-0.6-0.1-0.9-0.2c-0.3-0.1-0.6-0.3-0.9-0.5s-0.5-0.5-0.7-0.8
			c-0.2-0.3-0.3-0.7-0.3-1V23c0-0.4,0.1-0.8,0.3-1.1C224.3,21.6,224.5,21.3,224.8,21.1z M256.4,42.2c0-1.5-0.2-2.8-0.7-4.1
			c-0.5-1.3-1.1-2.4-2-3.4c-0.9-1-1.9-1.8-3.1-2.3s-2.5-0.8-4-0.8c-1.4,0-2.8,0.3-4.1,0.8c-1.3,0.5-2.4,1.2-3.3,2.2
			c-0.9,0.9-1.8,2-2.3,3.2c-0.6,1.2-0.9,2.6-1,4v0.5c0,1.5,0.3,2.9,0.8,4.2c0.6,1.3,1.4,2.4,2.3,3.4c0.9,0.9,2.1,1.7,3.4,2.3
			c1.3,0.5,2.7,0.8,4.1,0.8c1.4,0,2.8-0.3,4-0.8c1.2-0.5,2.2-1.3,3.1-2.3c0.9-0.9,1.5-2.1,2-3.4C256.2,45.1,256.4,43.7,256.4,42.2z"
			/>
		<path id="XMLID_15_" class="st1" d="M319.9,61.2c0,0.4-0.1,0.8-0.2,1.1c-0.1,0.4-0.4,0.6-0.7,0.8c-0.3,0.3-0.5,0.4-0.9,0.5
			c-0.3,0.1-0.6,0.1-0.9,0.1h-6.7c-0.5,0-0.9-0.1-1.2-0.2c-0.3-0.1-0.5-0.3-0.7-0.5c-0.2-0.2-0.3-0.5-0.5-0.8
			c-0.1-0.3-0.3-0.7-0.4-1.1l-0.4-1.5c-0.6,0.6-1.3,1.2-2.1,1.8c-0.8,0.6-1.6,1.1-2.6,1.6c-0.9,0.5-1.9,0.8-3,1.1
			c-1.1,0.3-2.2,0.4-3.3,0.4c-2,0-4-0.3-5.9-0.8c-1.9-0.5-3.7-1.3-5.3-2.2s-3.1-2.1-4.5-3.5c-1.4-1.4-2.5-2.8-3.4-4.5
			c-0.9-1.6-1.7-3.4-2.2-5.3c-0.5-1.9-0.8-3.9-0.8-6c0-3.1,0.6-6,1.7-8.7c1.2-2.7,2.7-5,4.7-7s4.3-3.6,7-4.7
			c2.7-1.1,5.6-1.7,8.6-1.7c1.4,0,2.7,0.1,3.9,0.5c1.2,0.3,2.3,0.7,3.3,1.3c1,0.5,1.9,1.2,2.7,1.9c0.8,0.8,1.5,1.6,2.2,2.4l1-3.1
			c0.2-0.5,0.4-1,0.5-1.4c0.1-0.4,0.3-0.6,0.5-0.8c0.2-0.2,0.4-0.3,0.6-0.3c0.3-0.1,0.6-0.1,1.1-0.1h5c0.3,0,0.5,0,0.9,0.1
			c0.3,0.1,0.6,0.2,0.9,0.5c0.3,0.3,0.5,0.5,0.7,0.8c0.1,0.3,0.2,0.7,0.2,1.1v38.1L319.9,61.2L319.9,61.2L319.9,61.2z M286.5,42.2
			c0,1.5,0.2,2.9,0.7,4.2c0.5,1.3,1.1,2.4,2,3.3c0.9,0.9,1.9,1.7,3.1,2.3c1.2,0.5,2.6,0.8,4,0.8c1.5,0,2.9-0.3,4.2-0.8
			c1.3-0.5,2.4-1.3,3.4-2.3s1.7-2.1,2.3-3.3c0.5-1.3,0.8-2.7,0.8-4.2c0-1.5-0.3-2.8-0.8-4.1c-0.5-1.3-1.3-2.4-2.3-3.5
			c-0.9-1-2.1-1.8-3.4-2.4c-1.3-0.6-2.7-0.9-4.2-0.9c-1.5,0-2.8,0.3-4,0.9c-1.2,0.6-2.2,1.4-3.1,2.4c-0.9,1-1.5,2.2-2,3.5
			C286.7,39.4,286.5,40.8,286.5,42.2z"/>
		<path id="XMLID_14_" class="st1" d="M334.4,50.3c0.6,0.6,1.3,1.1,2,1.5c0.7,0.4,1.4,0.8,2,1c0.7,0.3,1.2,0.4,1.7,0.5
			c0.5,0.1,0.8,0.2,1,0.2c0.4,0,1,0,1.6,0c0.6,0,1.3-0.1,1.9-0.3c0.6-0.2,1.1-0.4,1.6-0.8c0.4-0.4,0.7-0.9,0.7-1.6
			c0-0.6-0.1-1.1-0.4-1.5c-0.3-0.4-0.6-0.7-1.1-0.9s-1.1-0.5-1.8-0.7c-0.7-0.2-1.5-0.4-2.3-0.7c-2.7-0.7-5-1.6-6.7-2.6
			c-1.8-1-3.2-2.2-4.2-3.4c-1-1.2-1.8-2.6-2.2-4.1s-0.6-3-0.6-4.6c0-1.8,0.4-3.6,1.1-5.1c0.7-1.5,1.8-2.8,3.2-3.9
			c1.4-1.1,3-1.9,5-2.6c1.9-0.6,4.1-0.9,6.4-0.9c1.4,0,2.8,0.1,4,0.4s2.4,0.6,3.6,1.1c1.1,0.5,2.2,1.2,3.3,2
			c1.1,0.8,2.2,1.8,3.2,2.8c0.4,0.4,0.6,0.9,0.6,1.3c0,0.4-0.3,0.8-0.8,1.3c-0.9,0.7-1.7,1.4-2.5,2.2c-0.8,0.7-1.6,1.5-2.5,2.3
			c-0.3,0.2-0.5,0.4-0.8,0.4s-0.5,0-0.8,0c-0.3-0.1-0.5-0.2-0.7-0.3c-0.2-0.1-0.4-0.4-0.6-0.6c-0.8-0.9-1.7-1.5-2.7-1.8
			c-1-0.3-2-0.5-2.8-0.5c-1.1,0-2,0.2-2.6,0.6c-0.7,0.4-0.9,1-0.9,1.8c0,0.6,0.3,1.1,0.7,1.4c0.4,0.3,0.9,0.6,1.5,0.8
			s1.2,0.4,1.8,0.5c0.7,0.1,1.2,0.3,1.8,0.4c2,0.7,3.9,1.4,5.6,2.2c1.7,0.8,3.2,1.7,4.4,2.8c1.2,1.1,2.2,2.4,2.9,4
			c0.7,1.6,1,3.5,1,5.7s-0.4,4.2-1.4,6c-0.9,1.8-2.1,3.2-3.7,4.5s-3.4,2.1-5.5,2.7c-2.2,0.6-4.5,0.9-6.9,0.9c-1.4,0-2.8-0.1-4.3-0.4
			c-1.5-0.2-2.8-0.7-4.2-1.2c-1.4-0.5-2.6-1.3-3.9-2.2c-1.2-0.9-2.3-1.9-3.2-3.2c-0.3-0.3-0.4-0.7-0.5-1c-0.1-0.4-0.2-0.7-0.2-1
			s0.1-0.7,0.2-0.9c0.1-0.3,0.3-0.5,0.6-0.7l4.4-4.4c0.5-0.4,1-0.6,1.4-0.5C333.2,49.3,333.8,49.7,334.4,50.3z"/>
		<path id="XMLID_13_" class="st1" d="M373.6,50.3c0.6,0.6,1.3,1.1,2,1.5c0.7,0.4,1.4,0.8,2,1c0.7,0.3,1.2,0.4,1.7,0.5
			c0.5,0.1,0.8,0.2,1,0.2c0.4,0,1,0,1.6,0c0.7,0,1.3-0.1,1.9-0.3c0.6-0.2,1.1-0.4,1.6-0.8c0.4-0.4,0.7-0.9,0.7-1.6
			c0-0.6-0.1-1.1-0.4-1.5c-0.3-0.4-0.6-0.7-1.1-0.9s-1.1-0.5-1.8-0.7c-0.7-0.2-1.5-0.4-2.3-0.7c-2.7-0.7-5-1.6-6.7-2.6
			c-1.8-1-3.2-2.2-4.2-3.4c-1-1.2-1.8-2.6-2.2-4.1c-0.4-1.5-0.6-3-0.6-4.6c0-1.8,0.4-3.6,1.1-5.1c0.7-1.5,1.8-2.8,3.2-3.9
			c1.4-1.1,3-1.9,5-2.6c1.9-0.6,4.1-0.9,6.4-0.9c1.4,0,2.8,0.1,4,0.4c1.2,0.3,2.4,0.6,3.6,1.1c1.1,0.5,2.2,1.2,3.3,2
			c1.1,0.8,2.2,1.8,3.2,2.8c0.4,0.4,0.6,0.9,0.6,1.3c0,0.4-0.3,0.8-0.8,1.3c-0.9,0.7-1.7,1.4-2.5,2.2c-0.8,0.7-1.6,1.5-2.5,2.3
			c-0.3,0.2-0.5,0.4-0.8,0.4s-0.5,0-0.8,0c-0.3-0.1-0.5-0.2-0.7-0.3c-0.2-0.1-0.4-0.4-0.6-0.6c-0.8-0.9-1.7-1.5-2.7-1.8
			c-1-0.3-2-0.5-2.8-0.5c-1.1,0-2,0.2-2.6,0.6c-0.7,0.4-0.9,1-0.9,1.8c0,0.6,0.3,1.1,0.7,1.4c0.4,0.3,0.9,0.6,1.5,0.8
			s1.2,0.4,1.8,0.5c0.7,0.1,1.2,0.3,1.8,0.4c2,0.7,3.9,1.4,5.6,2.2c1.7,0.8,3.2,1.7,4.4,2.8c1.2,1.1,2.2,2.4,2.9,4
			c0.7,1.6,1,3.5,1,5.7s-0.4,4.2-1.4,6c-0.9,1.8-2.1,3.2-3.7,4.5c-1.6,1.2-3.4,2.1-5.5,2.7c-2.2,0.6-4.5,0.9-6.9,0.9
			c-1.4,0-2.8-0.1-4.3-0.4c-1.5-0.3-2.8-0.7-4.2-1.2c-1.4-0.5-2.6-1.3-3.9-2.2c-1.2-0.9-2.3-1.9-3.2-3.2c-0.3-0.3-0.4-0.7-0.5-1
			c-0.1-0.4-0.2-0.7-0.2-1s0.1-0.7,0.2-0.9c0.1-0.3,0.3-0.5,0.6-0.7l4.4-4.4c0.5-0.4,1-0.6,1.4-0.5C372.4,49.3,373,49.7,373.6,50.3z
			"/>
	</g>
	<g>
		<path class="st1" d="M402.1,8c0.6,0,1.2,0.1,1.7,0.4c0.5,0.3,1,0.7,1.3,1.3c0.3,0.5,0.5,1.2,0.5,1.7c0,0.6-0.2,1.2-0.5,1.7
			c-0.3,0.5-0.7,1-1.3,1.3c-0.5,0.3-1.1,0.5-1.7,0.5c-0.6,0-1.2-0.2-1.7-0.5c-0.5-0.3-1-0.7-1.3-1.3c-0.3-0.5-0.5-1.1-0.5-1.7
			c0-0.6,0.2-1.2,0.5-1.7c0.3-0.5,0.7-1,1.3-1.3C401,8.1,401.5,8,402.1,8z M402.1,8.7c-0.5,0-1,0.1-1.4,0.4c-0.4,0.2-0.8,0.6-1.1,1
			c-0.2,0.4-0.4,0.9-0.4,1.4c0,0.5,0.1,1,0.4,1.4c0.2,0.4,0.6,0.8,1,1c0.4,0.2,0.9,0.4,1.4,0.4c0.5,0,1-0.1,1.4-0.4
			c0.4-0.2,0.8-0.6,1-1c0.2-0.4,0.4-0.9,0.4-1.4c0-0.5-0.1-1-0.4-1.4c-0.2-0.4-0.6-0.8-1.1-1C403.1,8.8,402.6,8.7,402.1,8.7z
			 M400.5,13.4V9.6h0.7c0.7,0,1.1,0,1.2,0c0.2,0,0.4,0.1,0.6,0.1c0.1,0.1,0.2,0.2,0.3,0.3c0.1,0.2,0.1,0.3,0.1,0.5
			c0,0.3-0.1,0.5-0.3,0.7c-0.2,0.2-0.4,0.3-0.7,0.3c0.1,0,0.2,0.1,0.3,0.1c0.1,0,0.1,0.1,0.2,0.3c0,0,0.1,0.2,0.3,0.4l0.4,0.7h-0.9
			l-0.3-0.6c-0.2-0.4-0.4-0.6-0.5-0.7c-0.1-0.1-0.3-0.2-0.5-0.2h-0.2v1.5L400.5,13.4L400.5,13.4z M401.3,11.2h0.3c0.4,0,0.7,0,0.8,0
			c0.1,0,0.2-0.1,0.2-0.2c0.1-0.1,0.1-0.2,0.1-0.3c0-0.1,0-0.2-0.1-0.3c-0.1-0.1-0.1-0.1-0.2-0.2c-0.1,0-0.4-0.1-0.8-0.1h-0.3V11.2z
			"/>
	</g>
</g>
</svg>
